<svg width="239" height="35" viewBox="0 0 239 35" fill="none" xmlns="http://www.w3.org/2000/svg">
<g clip-path="url(#clip0_91_211)">
<path d="M239 22.9195H41.8461L50.4338 33.1337L52.2319 33.1916H170.11V35H52.1782L51.9444 34.9923L49.9853 34.9306L49.3412 34.6183L39.2429 22.6033L37.9893 21.111H237.229V0.0231323H239V22.9195Z" fill="#30A3FF"/>
<path d="M5.30983 0.219566H23.2904L17.8579 8.56759H0L5.30983 0.219566Z" fill="white"/>
<path d="M23.2831 0.215927H33.2165L10.7772 35H0.533203L23.2831 0.215927Z" fill="#30A3FF"/>
<path d="M22.6804 35H35.1288L21.9788 17.5984L16.5693 26.0467L22.6804 35.0039V35Z" fill="white"/>
<path d="M27.523 0.21978H28.9798L6.20695 35H4.75777L27.523 0.21978Z" fill="white"/>
<path d="M38.1349 2.29812L38.4762 0.262207H49.6901L49.6786 1.11436C48.9808 2.76083 48.3099 4.36103 47.6543 5.9111C47.0026 7.46503 46.3738 8.99582 45.7757 10.4996C45.1738 12.0034 44.5988 13.5034 44.0467 14.9879C43.4946 16.4763 42.9656 17.9762 42.4595 19.4916H39.8372C40.4199 17.9685 41.0065 16.484 41.6007 15.0342C42.1911 13.5843 42.7892 12.1538 43.3949 10.7425C44.0007 9.32743 44.6179 7.92388 45.2543 6.52804C45.8908 5.13221 46.5425 3.72095 47.2134 2.29427H38.1426L38.1349 2.29812Z" fill="white"/>
<path d="M63.8786 19.4955H61.3215V0.26226H63.8786V19.4955ZM73.3673 19.4955L65.0901 9.78248L72.9763 0.26226H75.8478L67.6243 9.45087L76.6299 19.4955H73.3673Z" fill="white"/>
<path d="M83.857 19.4954H81.2999V0.262207H83.857V19.4954Z" fill="white"/>
<path d="M90.3244 19.4955V0.26226H94.0432L103.064 13.3916L104.368 15.7553H104.628L104.444 13.0754V0.26226H106.779V19.4955H104.613L93.909 4.00634L92.7359 1.72365H92.4752L92.6592 4.4035V19.4993H90.3244V19.4955Z" fill="white"/>
<path d="M128.345 18.5122C127.137 18.9865 125.994 19.3104 124.925 19.4916C123.855 19.6689 122.889 19.7615 122.026 19.7615C120.573 19.7615 119.251 19.5417 118.058 19.0983C116.866 18.6548 115.846 18.0263 114.999 17.2089C114.152 16.3914 113.496 15.4005 113.036 14.2437C112.576 13.0831 112.346 11.7913 112.346 10.3647C112.346 9.28887 112.476 8.28248 112.737 7.35321C112.998 6.42008 113.362 5.57178 113.834 4.80831C114.305 4.04099 114.869 3.36235 115.524 2.76854C116.18 2.17473 116.905 1.67347 117.69 1.26474C118.476 0.856016 119.32 0.547544 120.217 0.331613C121.114 0.115683 122.038 0.0115738 122.996 0.0115738C123.621 0.0115738 124.357 0.0655564 125.201 0.177377C126.044 0.285343 126.945 0.485849 127.904 0.775042L127.474 3.0346L127.214 3.1657C126.255 2.72998 125.37 2.43308 124.549 2.27884C123.733 2.12461 123.031 2.04749 122.448 2.04749C121.333 2.04749 120.32 2.25185 119.408 2.65672C118.496 3.06545 117.71 3.6207 117.058 4.32247C116.406 5.0281 115.9 5.85326 115.543 6.80181C115.187 7.75036 115.007 8.76447 115.007 9.84026C115.007 10.9161 115.172 11.8492 115.501 12.8016C115.831 13.7501 116.314 14.5907 116.943 15.3234C117.575 16.056 118.35 16.6382 119.274 17.0778C120.198 17.5174 121.252 17.7333 122.444 17.7333C122.966 17.7333 123.533 17.687 124.147 17.5906C124.76 17.4942 125.393 17.3438 126.044 17.1433V10.4996H128.341V18.5199L128.345 18.5122Z" fill="white"/>
<path d="M139.892 17.7217C140.467 17.7217 140.996 17.6446 141.483 17.4904C141.97 17.3361 142.388 17.1202 142.737 16.8349C143.086 16.5495 143.358 16.2102 143.553 15.8169C143.749 15.4236 143.849 14.984 143.849 14.5059C143.849 13.9352 143.714 13.4571 143.45 13.0599C143.185 12.6628 142.836 12.3196 142.407 12.0227C141.978 11.7258 141.483 11.4597 140.927 11.2284C140.371 10.997 139.804 10.7618 139.229 10.5189C138.654 10.2798 138.09 10.0176 137.53 9.73615C136.975 9.45467 136.48 9.11535 136.051 8.71048C135.621 8.30947 135.272 7.83134 135.008 7.28765C134.743 6.74012 134.609 6.0769 134.609 5.29801C134.609 4.4767 134.766 3.73637 135.081 3.08087C135.395 2.42536 135.832 1.86626 136.392 1.40741C136.952 0.948554 137.619 0.597668 138.389 0.358602C139.16 0.119536 140.007 -0.00385284 140.927 -0.00385284C141.495 -0.00385284 142.204 0.0501297 143.055 0.161951C143.906 0.269916 144.811 0.470423 145.769 0.759615L145.34 3.04231L145.079 3.17341C144.6 2.95362 144.136 2.7724 143.684 2.62202C143.231 2.47164 142.806 2.35596 142.403 2.26727C142.004 2.17859 141.633 2.11689 141.295 2.08219C140.954 2.04749 140.659 2.02821 140.406 2.02821C139.892 2.02821 139.428 2.09376 139.014 2.21715C138.6 2.34439 138.247 2.52947 137.956 2.76854C137.665 3.00761 137.438 3.30065 137.277 3.64768C137.116 3.99472 137.036 4.38416 137.036 4.82373C137.036 5.40983 137.17 5.90724 137.435 6.31982C137.699 6.7324 138.052 7.09486 138.493 7.41104C138.934 7.72723 139.432 8.00485 139.988 8.25163C140.544 8.49841 141.111 8.74133 141.69 8.98811C142.269 9.23488 142.836 9.49708 143.392 9.77471C143.948 10.0562 144.447 10.3801 144.888 10.7541C145.328 11.1243 145.681 11.5677 145.946 12.0728C146.21 12.5818 146.344 13.1872 146.344 13.8967C146.344 14.6756 146.176 15.4159 145.842 16.1215C145.509 16.8272 145.037 17.4479 144.431 17.9839C143.826 18.5237 143.101 18.9517 142.25 19.2718C141.399 19.5918 140.463 19.7499 139.436 19.7499C138.999 19.7499 138.546 19.7191 138.071 19.6574C137.596 19.5957 137.12 19.5109 136.641 19.4029C136.162 19.2949 135.69 19.16 135.226 19.0019C134.762 18.8438 134.318 18.6703 133.9 18.4775L134.345 16.1794L134.605 16.0483C135.495 16.5649 136.392 16.9698 137.3 17.2706C138.209 17.5675 139.072 17.7179 139.892 17.7179V17.7217Z" fill="white"/>
<path d="M173.285 17.6446C172.798 18.0726 172.265 18.4273 171.694 18.7011C171.123 18.9749 170.54 19.1947 169.957 19.3527C169.375 19.5108 168.815 19.6188 168.278 19.6728C167.741 19.7306 167.27 19.7576 166.863 19.7576C165.602 19.7576 164.425 19.534 163.34 19.0828C162.251 18.6317 161.304 17.9955 160.499 17.1742C159.694 16.3529 159.062 15.3619 158.605 14.2013C158.149 13.0406 157.919 11.7489 157.919 10.3222C157.919 9.25414 158.049 8.25546 158.31 7.33005C158.571 6.40077 158.935 5.55633 159.407 4.79672C159.878 4.03711 160.434 3.35847 161.078 2.76081C161.722 2.167 162.432 1.66573 163.206 1.257C163.98 0.84828 164.801 0.539808 165.671 0.323877C166.541 0.107947 167.435 0.00383759 168.347 0.00383759C168.949 0.00383759 169.67 0.0578202 170.513 0.169641C171.357 0.277606 172.261 0.478113 173.228 0.767306L172.783 3.05L172.522 3.1811C171.564 2.74538 170.674 2.44462 169.854 2.28267C169.033 2.12073 168.332 2.03975 167.761 2.03975C166.718 2.03975 165.755 2.24412 164.877 2.64898C164 3.05771 163.24 3.61296 162.608 4.31473C161.971 5.02036 161.477 5.84167 161.12 6.7748C160.764 7.70792 160.584 8.71046 160.584 9.76698C160.584 10.8235 160.741 11.7643 161.059 12.7129C161.377 13.6614 161.845 14.502 162.462 15.2346C163.079 15.9673 163.842 16.5534 164.747 16.9929C165.652 17.4364 166.691 17.6561 167.868 17.6561C168.205 17.6561 168.581 17.633 168.991 17.5906C169.401 17.5482 169.835 17.4672 170.295 17.3477C170.755 17.2281 171.238 17.07 171.744 16.8734C172.25 16.6767 172.764 16.4223 173.285 16.1061V17.6407V17.6446Z" fill="white"/>
<path d="M186.473 19.7577C185.253 19.7577 184.088 19.5379 182.976 19.1022C181.864 18.6665 180.883 18.038 180.032 17.2244C179.181 16.4108 178.51 15.4237 178.007 14.263C177.509 13.1024 177.256 11.803 177.256 10.357C177.256 9.35832 177.379 8.41363 177.628 7.5152C177.877 6.61678 178.222 5.78776 178.667 5.02043C179.112 4.25311 179.641 3.5629 180.254 2.93825C180.867 2.31745 181.542 1.78919 182.282 1.35733C183.022 0.925469 183.808 0.590006 184.64 0.354796C185.472 0.119586 186.331 5.34058e-05 187.216 5.34058e-05C188.006 5.34058e-05 188.784 0.0964509 189.547 0.289246C190.31 0.482041 191.031 0.763522 191.713 1.12983C192.396 1.49614 193.025 1.95114 193.592 2.49482C194.159 3.0385 194.658 3.65545 195.072 4.34565C195.49 5.03586 195.816 5.80704 196.046 6.65148C196.276 7.49592 196.391 8.40977 196.391 9.38917C196.391 10.3686 196.272 11.3248 196.03 12.2233C195.793 13.1255 195.451 13.9584 195.01 14.7257C194.57 15.4931 194.048 16.1871 193.442 16.8079C192.837 17.4287 192.166 17.9608 191.433 18.3965C190.697 18.8361 189.911 19.1716 189.072 19.4068C188.232 19.642 187.362 19.7615 186.469 19.7615L186.473 19.7577ZM186.917 17.7218C187.918 17.7218 188.834 17.5213 189.666 17.1164C190.498 16.7154 191.211 16.1601 191.813 15.4545C192.415 14.7489 192.879 13.9237 193.209 12.979C193.538 12.0343 193.703 11.0125 193.703 9.92128C193.703 8.83006 193.523 7.71956 193.163 6.75173C192.802 5.7839 192.304 4.95103 191.675 4.24925C191.042 3.54748 190.303 3.0038 189.455 2.61435C188.608 2.22491 187.696 2.02826 186.722 2.02826C185.748 2.02826 184.778 2.23648 183.946 2.65291C183.114 3.06935 182.405 3.63231 181.811 4.3418C181.22 5.05128 180.76 5.8803 180.434 6.82885C180.108 7.7774 179.944 8.7915 179.944 9.8673C179.944 11.0125 180.12 12.0652 180.48 13.0253C180.837 13.9854 181.328 14.8106 181.956 15.5085C182.581 16.2025 183.321 16.7462 184.168 17.1357C185.016 17.5251 185.932 17.7218 186.917 17.7218Z" fill="white"/>
<path d="M202.08 0.262207H208.54C210.227 0.262207 211.711 0.497417 212.984 0.963981C214.257 1.43054 215.322 2.07062 216.173 2.87265C217.025 3.67853 217.669 4.62709 218.098 5.72216C218.527 6.81724 218.746 7.98557 218.746 9.22717C218.746 10.0331 218.654 10.8428 218.474 11.6641C218.29 12.4816 218.01 13.272 217.63 14.0355C217.251 14.7951 216.775 15.5084 216.2 16.1755C215.625 16.8426 214.947 17.4171 214.157 17.9068C213.371 18.3965 212.474 18.7859 211.469 19.0674C210.465 19.3528 209.349 19.4954 208.122 19.4954H202.08V0.262207ZM204.637 17.4595H208.594C209.855 17.4595 210.956 17.2552 211.895 16.8503C212.834 16.4416 213.612 15.8902 214.226 15.1961C214.839 14.502 215.299 13.6846 215.602 12.7553C215.905 11.8222 216.058 10.8274 216.058 9.767C216.058 8.61023 215.882 7.57299 215.529 6.64758C215.177 5.72602 214.663 4.93941 213.988 4.29933C213.313 3.65925 212.481 3.16184 211.496 2.81481C210.507 2.46778 209.384 2.29812 208.122 2.29812H204.637V17.4595Z" fill="white"/>
<path d="M224.436 19.4955V0.26226H235.65L235.259 2.29818H226.997V8.44062H234.358L233.967 10.4765H226.997V17.4596H235.861L235.469 19.4955H224.44H224.436Z" fill="white"/>
<path d="M52.6387 31.6762L53.1562 24.8204H54.5249L56.208 29.6056L56.4686 30.5001H56.5607L56.8175 29.6056L58.5044 24.8204H59.8769L60.3945 31.6762H59.4974L59.1332 26.2972L59.0948 25.314H59.0066L58.7383 26.2509L56.898 31.5374H56.0738L54.2144 26.2587L53.9345 25.314H53.8463L53.8195 26.2856L53.4553 31.6762H52.6425H52.6387Z" fill="white"/>
<path d="M65.9689 29.8138H63.0283L62.3919 31.6762H61.5331L64.0673 24.8204H65.0334L67.5714 31.6762H66.6129L65.965 29.8138H65.9689ZM65.712 29.0966L64.811 26.4206L64.5465 25.4682H64.4545L64.19 26.4206L63.2775 29.0966H65.7158H65.712Z" fill="white"/>
<path d="M69.8675 28.9424V31.6762H68.9551V24.8204H70.8797C71.2132 24.8204 71.5199 24.8667 71.7998 24.9592C72.0796 25.0518 72.3173 25.1829 72.5167 25.3448C72.716 25.5068 72.8694 25.6996 72.9806 25.9232C73.0918 26.1469 73.1454 26.3821 73.1454 26.6404C73.1454 26.8641 73.1071 27.0761 73.0228 27.2689C72.9422 27.4656 72.8349 27.643 72.7045 27.8088C72.5742 27.9707 72.4247 28.1211 72.2598 28.2522C72.095 28.3833 71.9263 28.499 71.7614 28.5954L73.7665 31.6801H72.6739L71.1173 28.9462H69.8675V28.9424ZM69.8675 28.2175H71.378C71.5084 28.1442 71.6234 28.0594 71.7308 27.9553C71.8343 27.8512 71.9224 27.7394 71.9953 27.616C72.0681 27.4926 72.1218 27.3615 72.1601 27.2265C72.1985 27.0877 72.2177 26.9489 72.2177 26.8062C72.2177 26.6288 72.187 26.463 72.1256 26.3088C72.0643 26.1546 71.9685 26.0196 71.8458 25.9078C71.7193 25.796 71.5621 25.7073 71.3742 25.6417C71.1864 25.5762 70.964 25.5453 70.7071 25.5453H69.8714V28.2175H69.8675Z" fill="white"/>
<path d="M76.0326 31.6762H75.1202V24.8204H76.0326V31.6762ZM79.414 31.6762L76.4658 28.2136L79.276 24.8204H80.2996L77.3706 28.0941L80.5795 31.6723H79.4179L79.414 31.6762Z" fill="white"/>
<path d="M81.9141 31.6762V24.8204H85.9089L85.7709 25.5453H82.8265V27.7355H85.4488L85.3108 28.4604H82.8265V30.9513H85.9856L85.8476 31.6762H81.9179H81.9141Z" fill="white"/>
<path d="M90.0142 31.6762H89.1018V25.5491H86.8398L86.9779 24.8242H92.3644L92.2264 25.5491H90.0104V31.6762H90.0142Z" fill="white"/>
<path d="M94.5384 31.6762H93.626V24.8204H94.5384V31.6762Z" fill="white"/>
<path d="M96.5205 31.6762V24.8204H97.847L101.06 29.4976L101.524 30.3382H101.616L101.55 29.3819V24.8165H102.382V31.6723H101.612L97.7972 26.1507L97.3793 25.3371H97.2873L97.3524 26.2934V31.6723H96.5205V31.6762Z" fill="white"/>
<path d="M109.747 31.3253C109.317 31.495 108.911 31.6107 108.528 31.6724C108.148 31.7379 107.803 31.7688 107.496 31.7688C106.979 31.7688 106.507 31.6917 106.082 31.5336C105.656 31.3755 105.292 31.1518 104.989 30.8588C104.686 30.5657 104.452 30.2149 104.287 29.8023C104.122 29.3897 104.042 28.927 104.042 28.418C104.042 28.0363 104.088 27.6777 104.18 27.3461C104.272 27.0145 104.402 26.7098 104.571 26.4399C104.74 26.1662 104.939 25.9232 105.173 25.7112C105.407 25.4991 105.664 25.3217 105.944 25.1752C106.223 25.0287 106.522 24.9207 106.845 24.8436C107.163 24.7665 107.492 24.7279 107.834 24.7279C108.056 24.7279 108.321 24.7472 108.62 24.7857C108.919 24.8243 109.241 24.8976 109.582 24.9978L109.428 25.8037L109.336 25.85C108.995 25.6957 108.681 25.5878 108.386 25.5338C108.094 25.4798 107.845 25.4528 107.638 25.4528C107.239 25.4528 106.879 25.5261 106.553 25.6687C106.227 25.8153 105.947 26.0119 105.717 26.2626C105.484 26.5132 105.303 26.8101 105.177 27.1456C105.05 27.4849 104.985 27.8435 104.985 28.2291C104.985 28.6147 105.043 28.9463 105.161 29.2856C105.28 29.6249 105.449 29.9218 105.675 30.184C105.901 30.4423 106.177 30.6506 106.507 30.8087C106.837 30.9668 107.213 31.0439 107.638 31.0439C107.826 31.0439 108.025 31.0284 108.244 30.9937C108.462 30.959 108.689 30.9051 108.922 30.8357V28.4681H109.743V31.3253H109.747Z" fill="white"/>
<path d="M115.639 31.0439C115.843 31.0439 116.034 31.0169 116.207 30.9629C116.379 30.9089 116.529 30.8318 116.655 30.7277C116.778 30.6274 116.878 30.504 116.947 30.3652C117.016 30.2264 117.05 30.0683 117.05 29.8987C117.05 29.6943 117.004 29.5246 116.908 29.3858C116.812 29.247 116.69 29.1236 116.536 29.0157C116.383 28.9116 116.207 28.8152 116.007 28.7342C115.808 28.6532 115.609 28.5684 115.402 28.4797C115.198 28.3949 114.995 28.3023 114.796 28.2021C114.597 28.1018 114.42 27.9784 114.267 27.8358C114.113 27.6931 113.991 27.5234 113.895 27.3268C113.799 27.134 113.753 26.8949 113.753 26.6173C113.753 26.3242 113.811 26.062 113.922 25.8268C114.033 25.5916 114.19 25.395 114.39 25.2292C114.589 25.0672 114.827 24.94 115.103 24.8552C115.379 24.7703 115.678 24.7279 116.007 24.7279C116.211 24.7279 116.46 24.7472 116.766 24.7857C117.069 24.8243 117.391 24.8976 117.733 24.9978L117.579 25.8114L117.487 25.8577C117.315 25.7806 117.15 25.715 116.989 25.661C116.828 25.6071 116.674 25.5646 116.533 25.5338C116.391 25.5029 116.257 25.4798 116.138 25.4682C116.019 25.4567 115.912 25.449 115.823 25.449C115.639 25.449 115.474 25.4721 115.329 25.5184C115.183 25.5646 115.057 25.6302 114.953 25.715C114.85 25.7998 114.769 25.904 114.712 26.0273C114.654 26.1507 114.627 26.2895 114.627 26.4476C114.627 26.6559 114.673 26.8332 114.769 26.9798C114.865 27.1263 114.988 27.2574 115.145 27.3692C115.302 27.481 115.478 27.5813 115.678 27.67C115.877 27.7586 116.08 27.8435 116.283 27.9322C116.49 28.0208 116.694 28.1134 116.889 28.2136C117.085 28.3139 117.265 28.4296 117.422 28.5607C117.579 28.6918 117.706 28.8499 117.798 29.0311C117.894 29.2123 117.94 29.4282 117.94 29.6827C117.94 29.9604 117.878 30.2264 117.759 30.4771C117.641 30.7277 117.472 30.9513 117.257 31.1403C117.043 31.3331 116.782 31.4834 116.479 31.5991C116.176 31.7148 115.843 31.7688 115.478 31.7688C115.325 31.7688 115.16 31.7572 114.991 31.7379C114.823 31.7148 114.654 31.6839 114.482 31.6454C114.313 31.6068 114.144 31.5606 113.975 31.5027C113.811 31.4449 113.653 31.3832 113.504 31.3138L113.661 30.4963L113.753 30.4501C114.067 30.6351 114.39 30.7778 114.715 30.8858C115.041 30.9937 115.348 31.0439 115.639 31.0439Z" fill="white"/>
<path d="M122.598 31.7687C122.165 31.7687 121.747 31.6916 121.352 31.5335C120.953 31.3793 120.605 31.1556 120.302 30.8664C119.999 30.5773 119.757 30.2225 119.581 29.8099C119.405 29.3973 119.313 28.9308 119.313 28.4179C119.313 28.0632 119.359 27.7239 119.447 27.4038C119.535 27.0838 119.658 26.7869 119.815 26.5131C119.972 26.2394 120.16 25.9926 120.378 25.7728C120.597 25.553 120.838 25.3641 121.103 25.2098C121.367 25.0556 121.647 24.9361 121.943 24.8512C122.238 24.7664 122.544 24.724 122.863 24.724C123.146 24.724 123.422 24.7587 123.695 24.8281C123.967 24.8975 124.224 24.9978 124.465 25.1289C124.707 25.26 124.933 25.4219 125.136 25.6147C125.339 25.8075 125.516 26.0273 125.665 26.2741C125.815 26.5208 125.93 26.7946 126.01 27.0954C126.091 27.3961 126.133 27.72 126.133 28.0709C126.133 28.4218 126.091 28.7611 126.006 29.0812C125.922 29.4012 125.799 29.6981 125.642 29.9719C125.485 30.2456 125.301 30.4924 125.082 30.7122C124.868 30.932 124.626 31.1209 124.366 31.279C124.105 31.4371 123.821 31.5567 123.522 31.6376C123.223 31.7225 122.912 31.7649 122.594 31.7649L122.598 31.7687ZM122.759 31.0438C123.116 31.0438 123.442 30.9706 123.737 30.8279C124.032 30.6852 124.289 30.4886 124.504 30.2341C124.718 29.9834 124.883 29.6904 125.002 29.3511C125.121 29.0156 125.178 28.6493 125.178 28.2599C125.178 27.8704 125.113 27.4733 124.987 27.1301C124.86 26.7869 124.68 26.49 124.458 26.2394C124.231 25.9887 123.971 25.7959 123.668 25.6571C123.365 25.5183 123.039 25.4489 122.694 25.4489C122.349 25.4489 122 25.5222 121.705 25.6725C121.41 25.8191 121.157 26.0196 120.946 26.2741C120.735 26.5286 120.57 26.8216 120.455 27.1609C120.34 27.5002 120.279 27.8588 120.279 28.2444C120.279 28.6532 120.344 29.0272 120.47 29.3704C120.597 29.7135 120.773 30.0066 120.996 30.2534C121.218 30.5001 121.482 30.6929 121.785 30.8317C122.088 30.9706 122.414 31.04 122.763 31.04L122.759 31.0438Z" fill="white"/>
<path d="M127.839 31.6762V24.8204H128.751V30.9474H131.569L131.431 31.6723H127.839V31.6762Z" fill="white"/>
<path d="M133.82 24.8204V29.0773C133.82 29.4166 133.877 29.7097 133.988 29.9603C134.1 30.2071 134.245 30.4115 134.422 30.5734C134.598 30.7354 134.797 30.851 135.02 30.9281C135.242 31.0053 135.461 31.0438 135.679 31.0438C135.898 31.0438 136.116 31.0053 136.316 30.9243C136.519 30.8433 136.691 30.7276 136.845 30.5695C136.994 30.4115 137.117 30.2148 137.205 29.9796C137.293 29.7444 137.339 29.4706 137.339 29.1544V24.8204H138.175V29.1429C138.175 29.3318 138.152 29.5323 138.106 29.7367C138.06 29.941 137.987 30.1415 137.895 30.3343C137.799 30.5271 137.68 30.7122 137.535 30.8857C137.389 31.0592 137.216 31.2135 137.017 31.3446C136.818 31.4757 136.592 31.5798 136.339 31.6569C136.085 31.734 135.802 31.7726 135.487 31.7726C135.104 31.7726 134.755 31.7109 134.441 31.5914C134.126 31.4718 133.854 31.2983 133.624 31.067C133.398 30.8395 133.218 30.5541 133.095 30.2187C132.969 29.8832 132.907 29.5015 132.907 29.0735V24.8204H133.82Z" fill="white"/>
<path d="M142.565 31.6762H141.653V25.5491H139.391L139.529 24.8242H144.915L144.777 25.5491H142.561V31.6762H142.565Z" fill="white"/>
<path d="M147.092 31.6762H146.18V24.8204H147.092V31.6762Z" fill="white"/>
<path d="M152.077 31.7687C151.643 31.7687 151.225 31.6916 150.831 31.5335C150.432 31.3793 150.083 31.1556 149.78 30.8664C149.477 30.5773 149.236 30.2225 149.059 29.8099C148.883 29.3973 148.791 28.9308 148.791 28.4179C148.791 28.0632 148.837 27.7239 148.925 27.4038C149.013 27.0838 149.136 26.7869 149.293 26.5131C149.45 26.2394 149.638 25.9926 149.857 25.7728C150.075 25.553 150.317 25.3641 150.581 25.2098C150.846 25.0556 151.126 24.9361 151.421 24.8512C151.716 24.7664 152.023 24.724 152.341 24.724C152.625 24.724 152.901 24.7587 153.173 24.8281C153.445 24.8975 153.702 24.9978 153.944 25.1289C154.185 25.26 154.411 25.4219 154.615 25.6147C154.818 25.8075 154.994 26.0273 155.144 26.2741C155.293 26.5208 155.408 26.7946 155.489 27.0954C155.569 27.3961 155.611 27.72 155.611 28.0709C155.611 28.4218 155.569 28.7611 155.485 29.0812C155.401 29.4012 155.278 29.6981 155.121 29.9719C154.963 30.2456 154.779 30.4924 154.561 30.7122C154.346 30.932 154.105 31.1209 153.844 31.279C153.583 31.4371 153.3 31.5567 153.001 31.6376C152.701 31.7225 152.391 31.7649 152.073 31.7649L152.077 31.7687ZM152.238 31.0438C152.594 31.0438 152.92 30.9706 153.215 30.8279C153.51 30.6852 153.767 30.4886 153.982 30.2341C154.197 29.9834 154.362 29.6904 154.48 29.3511C154.599 29.0156 154.657 28.6493 154.657 28.2599C154.657 27.8704 154.592 27.4733 154.465 27.1301C154.339 26.7869 154.158 26.49 153.936 26.2394C153.71 25.9887 153.449 25.7959 153.146 25.6571C152.843 25.5183 152.517 25.4489 152.172 25.4489C151.827 25.4489 151.479 25.5222 151.183 25.6725C150.888 25.8191 150.635 26.0196 150.424 26.2741C150.213 26.5286 150.048 26.8216 149.933 27.1609C149.818 27.5002 149.757 27.8588 149.757 28.2444C149.757 28.6532 149.822 29.0272 149.949 29.3704C150.075 29.7135 150.252 30.0066 150.474 30.2534C150.696 30.5001 150.961 30.6929 151.264 30.8317C151.567 30.9706 151.893 31.04 152.241 31.04L152.238 31.0438Z" fill="white"/>
<path d="M157.268 31.6762V24.8204H158.594L161.807 29.4976L162.271 30.3382H162.363L162.298 29.3819V24.8165H163.129V31.6723H162.359L158.544 26.1507L158.126 25.3371H158.034L158.1 26.2933V31.6723H157.268V31.6762Z" fill="white"/>
<path d="M166.924 31.0439C167.128 31.0439 167.319 31.0169 167.492 30.9629C167.664 30.9089 167.814 30.8318 167.936 30.7277C168.059 30.6274 168.159 30.504 168.228 30.3652C168.297 30.2264 168.331 30.0683 168.331 29.8987C168.331 29.6943 168.285 29.5246 168.19 29.3858C168.094 29.247 167.971 29.1236 167.818 29.0157C167.664 28.9116 167.488 28.8152 167.289 28.7342C167.089 28.6532 166.89 28.5684 166.683 28.4797C166.476 28.391 166.276 28.3023 166.077 28.2021C165.878 28.1018 165.701 27.9784 165.548 27.8358C165.395 27.6931 165.272 27.5234 165.176 27.3268C165.08 27.134 165.034 26.8949 165.034 26.6173C165.034 26.3242 165.092 26.062 165.203 25.8268C165.314 25.5916 165.471 25.395 165.671 25.2292C165.87 25.0672 166.108 24.94 166.384 24.8552C166.66 24.7703 166.959 24.7279 167.289 24.7279C167.492 24.7279 167.745 24.7472 168.048 24.7857C168.351 24.8243 168.673 24.8976 169.014 24.9978L168.86 25.8114L168.768 25.8577C168.6 25.7806 168.431 25.715 168.27 25.661C168.109 25.6071 167.956 25.5646 167.814 25.5338C167.672 25.5029 167.538 25.4798 167.419 25.4682C167.3 25.4567 167.193 25.449 167.101 25.449C166.917 25.449 166.752 25.4721 166.606 25.5184C166.46 25.5646 166.334 25.6302 166.23 25.715C166.127 25.7998 166.046 25.904 165.989 26.0273C165.931 26.1507 165.905 26.2895 165.905 26.4476C165.905 26.6559 165.951 26.8332 166.046 26.9798C166.142 27.1263 166.265 27.2574 166.422 27.3692C166.579 27.481 166.756 27.5813 166.955 27.67C167.154 27.7586 167.354 27.8435 167.561 27.9322C167.768 28.0208 167.971 28.1134 168.167 28.2136C168.366 28.3139 168.542 28.4296 168.699 28.5607C168.857 28.6918 168.983 28.8499 169.075 29.0311C169.171 29.2123 169.217 29.4282 169.217 29.6827C169.217 29.9604 169.156 30.2264 169.037 30.4771C168.918 30.7277 168.749 30.9513 168.535 31.1403C168.32 31.3331 168.059 31.4834 167.756 31.5991C167.453 31.7109 167.12 31.7688 166.756 31.7688C166.602 31.7688 166.437 31.7572 166.269 31.7379C166.1 31.7148 165.931 31.6839 165.759 31.6454C165.586 31.6068 165.422 31.5606 165.253 31.5027C165.084 31.4449 164.931 31.3832 164.781 31.3138L164.938 30.4963L165.03 30.4501C165.349 30.6351 165.667 30.7778 165.989 30.8858C166.315 30.9937 166.621 31.0439 166.913 31.0439H166.924Z" fill="white"/>
</g>
<defs>
<clipPath id="clip0_91_211">
<rect width="239" height="35" fill="white"/>
</clipPath>
</defs>
</svg>
